<mxfile host="app.diagrams.net" agent="Mozilla/5.0 (Windows NT 10.0; Win64; x64) AppleWebKit/537.36 (KHTML, like Gecko) Chrome/131.0.0.0 Safari/537.36" version="24.9.1">
  <diagram name="Page-1" id="dxGUADrtjsU-ueyrWhip">
    <mxGraphModel grid="1" page="1" gridSize="10" guides="1" tooltips="1" connect="1" arrows="1" fold="1" pageScale="1" pageWidth="850" pageHeight="1100" math="0" shadow="0">
      <root>
        <mxCell id="0" />
        <mxCell id="1" parent="0" />
        <mxCell id="Xm4_7lnJgAzcKnX5tmTT-130" value="" style="rounded=0;whiteSpace=wrap;html=1;fillColor=#dae8fc;strokeColor=#6c8ebf;" vertex="1" parent="1">
          <mxGeometry x="260" y="221.25" width="100" height="50" as="geometry" />
        </mxCell>
        <mxCell id="Xm4_7lnJgAzcKnX5tmTT-3" value="" style="edgeStyle=orthogonalEdgeStyle;rounded=0;orthogonalLoop=1;jettySize=auto;html=1;" edge="1" parent="1" source="Xm4_7lnJgAzcKnX5tmTT-1" target="Xm4_7lnJgAzcKnX5tmTT-2">
          <mxGeometry relative="1" as="geometry">
            <Array as="points">
              <mxPoint x="130" y="110" />
              <mxPoint x="130" y="110" />
            </Array>
          </mxGeometry>
        </mxCell>
        <mxCell id="Xm4_7lnJgAzcKnX5tmTT-5" value="" style="edgeStyle=orthogonalEdgeStyle;rounded=0;orthogonalLoop=1;jettySize=auto;html=1;" edge="1" parent="1" source="Xm4_7lnJgAzcKnX5tmTT-1" target="Xm4_7lnJgAzcKnX5tmTT-4">
          <mxGeometry relative="1" as="geometry">
            <Array as="points">
              <mxPoint x="350" y="90" />
            </Array>
          </mxGeometry>
        </mxCell>
        <mxCell id="Xm4_7lnJgAzcKnX5tmTT-30" style="edgeStyle=orthogonalEdgeStyle;rounded=0;orthogonalLoop=1;jettySize=auto;html=1;exitX=1;exitY=0;exitDx=0;exitDy=0;entryX=0;entryY=0.5;entryDx=0;entryDy=0;" edge="1" parent="1" source="Xm4_7lnJgAzcKnX5tmTT-1" target="Xm4_7lnJgAzcKnX5tmTT-29">
          <mxGeometry relative="1" as="geometry">
            <Array as="points">
              <mxPoint x="180" y="40" />
            </Array>
          </mxGeometry>
        </mxCell>
        <mxCell id="Xm4_7lnJgAzcKnX5tmTT-109" style="edgeStyle=orthogonalEdgeStyle;rounded=0;orthogonalLoop=1;jettySize=auto;html=1;exitX=1;exitY=1;exitDx=0;exitDy=0;entryX=0;entryY=0.5;entryDx=0;entryDy=0;" edge="1" parent="1" source="Xm4_7lnJgAzcKnX5tmTT-1" target="Xm4_7lnJgAzcKnX5tmTT-108">
          <mxGeometry relative="1" as="geometry">
            <Array as="points">
              <mxPoint x="240" y="100" />
              <mxPoint x="240" y="246" />
            </Array>
          </mxGeometry>
        </mxCell>
        <mxCell id="Xm4_7lnJgAzcKnX5tmTT-1" value="User" style="rounded=0;whiteSpace=wrap;html=1;glass=0;shadow=0;" vertex="1" parent="1">
          <mxGeometry x="60" y="40" width="120" height="60" as="geometry" />
        </mxCell>
        <mxCell id="Xm4_7lnJgAzcKnX5tmTT-9" value="" style="edgeStyle=orthogonalEdgeStyle;rounded=0;orthogonalLoop=1;jettySize=auto;html=1;" edge="1" parent="1" source="Xm4_7lnJgAzcKnX5tmTT-2" target="Xm4_7lnJgAzcKnX5tmTT-8">
          <mxGeometry relative="1" as="geometry">
            <Array as="points">
              <mxPoint x="130" y="270" />
              <mxPoint x="130" y="270" />
            </Array>
          </mxGeometry>
        </mxCell>
        <mxCell id="Xm4_7lnJgAzcKnX5tmTT-2" value="Owns" style="rhombus;whiteSpace=wrap;html=1;rounded=0;" vertex="1" parent="1">
          <mxGeometry x="80" y="190" width="100" height="50" as="geometry" />
        </mxCell>
        <mxCell id="Xm4_7lnJgAzcKnX5tmTT-7" value="" style="edgeStyle=orthogonalEdgeStyle;rounded=0;orthogonalLoop=1;jettySize=auto;html=1;" edge="1" parent="1" source="Xm4_7lnJgAzcKnX5tmTT-4">
          <mxGeometry relative="1" as="geometry">
            <mxPoint x="420" y="147.5" as="targetPoint" />
          </mxGeometry>
        </mxCell>
        <mxCell id="Xm4_7lnJgAzcKnX5tmTT-4" value="Subscribes" style="rhombus;whiteSpace=wrap;html=1;rounded=0;" vertex="1" parent="1">
          <mxGeometry x="270" y="120" width="100" height="55" as="geometry" />
        </mxCell>
        <mxCell id="Xm4_7lnJgAzcKnX5tmTT-6" value="" style="whiteSpace=wrap;html=1;rounded=0;fillColor=#f8cecc;strokeColor=#b85450;" vertex="1" parent="1">
          <mxGeometry x="420" y="120" width="120" height="60" as="geometry" />
        </mxCell>
        <mxCell id="Xm4_7lnJgAzcKnX5tmTT-11" value="" style="edgeStyle=orthogonalEdgeStyle;rounded=0;orthogonalLoop=1;jettySize=auto;html=1;" edge="1" parent="1" source="Xm4_7lnJgAzcKnX5tmTT-8" target="Xm4_7lnJgAzcKnX5tmTT-10">
          <mxGeometry relative="1" as="geometry" />
        </mxCell>
        <mxCell id="Xm4_7lnJgAzcKnX5tmTT-8" value="Channels&amp;nbsp;" style="whiteSpace=wrap;html=1;rounded=0;" vertex="1" parent="1">
          <mxGeometry x="110" y="287.5" width="120" height="60" as="geometry" />
        </mxCell>
        <mxCell id="Xm4_7lnJgAzcKnX5tmTT-13" value="" style="edgeStyle=orthogonalEdgeStyle;rounded=0;orthogonalLoop=1;jettySize=auto;html=1;" edge="1" parent="1" source="Xm4_7lnJgAzcKnX5tmTT-10" target="Xm4_7lnJgAzcKnX5tmTT-12">
          <mxGeometry relative="1" as="geometry">
            <Array as="points">
              <mxPoint x="510" y="318" />
              <mxPoint x="510" y="318" />
            </Array>
          </mxGeometry>
        </mxCell>
        <mxCell id="Xm4_7lnJgAzcKnX5tmTT-10" value="Hosts" style="rhombus;whiteSpace=wrap;html=1;rounded=0;" vertex="1" parent="1">
          <mxGeometry x="310" y="292.5" width="100" height="50" as="geometry" />
        </mxCell>
        <mxCell id="Xm4_7lnJgAzcKnX5tmTT-15" value="" style="edgeStyle=orthogonalEdgeStyle;rounded=0;orthogonalLoop=1;jettySize=auto;html=1;" edge="1" parent="1" source="Xm4_7lnJgAzcKnX5tmTT-12" target="Xm4_7lnJgAzcKnX5tmTT-14">
          <mxGeometry relative="1" as="geometry" />
        </mxCell>
        <mxCell id="Xm4_7lnJgAzcKnX5tmTT-25" value="" style="edgeStyle=orthogonalEdgeStyle;rounded=0;orthogonalLoop=1;jettySize=auto;html=1;" edge="1" parent="1" source="Xm4_7lnJgAzcKnX5tmTT-12" target="Xm4_7lnJgAzcKnX5tmTT-24">
          <mxGeometry relative="1" as="geometry">
            <Array as="points">
              <mxPoint x="610" y="280" />
              <mxPoint x="610" y="280" />
            </Array>
          </mxGeometry>
        </mxCell>
        <mxCell id="Xm4_7lnJgAzcKnX5tmTT-12" value="Streams" style="whiteSpace=wrap;html=1;rounded=0;" vertex="1" parent="1">
          <mxGeometry x="540" y="292.5" width="120" height="60" as="geometry" />
        </mxCell>
        <mxCell id="Xm4_7lnJgAzcKnX5tmTT-17" value="" style="edgeStyle=orthogonalEdgeStyle;rounded=0;orthogonalLoop=1;jettySize=auto;html=1;" edge="1" parent="1" source="Xm4_7lnJgAzcKnX5tmTT-14" target="Xm4_7lnJgAzcKnX5tmTT-16">
          <mxGeometry relative="1" as="geometry" />
        </mxCell>
        <mxCell id="Xm4_7lnJgAzcKnX5tmTT-14" value="Contains" style="rhombus;whiteSpace=wrap;html=1;rounded=0;" vertex="1" parent="1">
          <mxGeometry x="550" y="430" width="100" height="45" as="geometry" />
        </mxCell>
        <mxCell id="Xm4_7lnJgAzcKnX5tmTT-16" value="" style="whiteSpace=wrap;html=1;rounded=0;fillColor=#f8cecc;strokeColor=#b85450;" vertex="1" parent="1">
          <mxGeometry x="290" y="422.5" width="120" height="60" as="geometry" />
        </mxCell>
        <mxCell id="Xm4_7lnJgAzcKnX5tmTT-23" style="edgeStyle=orthogonalEdgeStyle;rounded=0;orthogonalLoop=1;jettySize=auto;html=1;exitX=0;exitY=1;exitDx=0;exitDy=0;" edge="1" parent="1" source="Xm4_7lnJgAzcKnX5tmTT-1" target="Xm4_7lnJgAzcKnX5tmTT-21">
          <mxGeometry relative="1" as="geometry">
            <Array as="points">
              <mxPoint x="70" y="100" />
            </Array>
          </mxGeometry>
        </mxCell>
        <mxCell id="Xm4_7lnJgAzcKnX5tmTT-22" style="edgeStyle=orthogonalEdgeStyle;rounded=0;orthogonalLoop=1;jettySize=auto;html=1;entryX=0;entryY=0.5;entryDx=0;entryDy=0;" edge="1" parent="1" source="Xm4_7lnJgAzcKnX5tmTT-21" target="Xm4_7lnJgAzcKnX5tmTT-16">
          <mxGeometry relative="1" as="geometry" />
        </mxCell>
        <mxCell id="Xm4_7lnJgAzcKnX5tmTT-21" value="Sends" style="rhombus;whiteSpace=wrap;html=1;" vertex="1" parent="1">
          <mxGeometry x="20" y="428.75" width="100" height="47.5" as="geometry" />
        </mxCell>
        <mxCell id="Xm4_7lnJgAzcKnX5tmTT-27" value="" style="edgeStyle=orthogonalEdgeStyle;rounded=0;orthogonalLoop=1;jettySize=auto;html=1;" edge="1" parent="1" source="Xm4_7lnJgAzcKnX5tmTT-24" target="Xm4_7lnJgAzcKnX5tmTT-26">
          <mxGeometry relative="1" as="geometry">
            <Array as="points">
              <mxPoint x="650" y="120" />
            </Array>
          </mxGeometry>
        </mxCell>
        <mxCell id="Xm4_7lnJgAzcKnX5tmTT-24" value="Generate" style="rhombus;whiteSpace=wrap;html=1;rounded=0;" vertex="1" parent="1">
          <mxGeometry x="560" y="210" width="100" height="42.5" as="geometry" />
        </mxCell>
        <mxCell id="Xm4_7lnJgAzcKnX5tmTT-26" value="Clips" style="whiteSpace=wrap;html=1;rounded=0;" vertex="1" parent="1">
          <mxGeometry x="700" y="90" width="120" height="60" as="geometry" />
        </mxCell>
        <mxCell id="Xm4_7lnJgAzcKnX5tmTT-31" style="edgeStyle=orthogonalEdgeStyle;rounded=0;orthogonalLoop=1;jettySize=auto;html=1;exitX=1;exitY=0.5;exitDx=0;exitDy=0;entryX=0.5;entryY=0;entryDx=0;entryDy=0;" edge="1" parent="1" source="Xm4_7lnJgAzcKnX5tmTT-29" target="Xm4_7lnJgAzcKnX5tmTT-26">
          <mxGeometry relative="1" as="geometry" />
        </mxCell>
        <mxCell id="Xm4_7lnJgAzcKnX5tmTT-29" value="Creates" style="rhombus;whiteSpace=wrap;html=1;" vertex="1" parent="1">
          <mxGeometry x="440" y="20" width="100" height="40" as="geometry" />
        </mxCell>
        <mxCell id="Xm4_7lnJgAzcKnX5tmTT-32" value="Last name" style="ellipse;whiteSpace=wrap;html=1;" vertex="1" parent="1">
          <mxGeometry x="-70" y="70" width="60" height="30" as="geometry" />
        </mxCell>
        <mxCell id="Xm4_7lnJgAzcKnX5tmTT-33" value="First name" style="ellipse;whiteSpace=wrap;html=1;" vertex="1" parent="1">
          <mxGeometry x="-70" y="20" width="60" height="30" as="geometry" />
        </mxCell>
        <mxCell id="Xm4_7lnJgAzcKnX5tmTT-34" value="Username" style="ellipse;whiteSpace=wrap;html=1;" vertex="1" parent="1">
          <mxGeometry x="40" y="-40" width="60" height="30" as="geometry" />
        </mxCell>
        <mxCell id="Xm4_7lnJgAzcKnX5tmTT-35" value="Email" style="ellipse;whiteSpace=wrap;html=1;" vertex="1" parent="1">
          <mxGeometry x="130" y="-40" width="60" height="30" as="geometry" />
        </mxCell>
        <mxCell id="Xm4_7lnJgAzcKnX5tmTT-36" value="UserID" style="ellipse;whiteSpace=wrap;html=1;" vertex="1" parent="1">
          <mxGeometry x="-30" y="-20" width="60" height="30" as="geometry" />
        </mxCell>
        <mxCell id="Xm4_7lnJgAzcKnX5tmTT-37" value="Registration date" style="ellipse;whiteSpace=wrap;html=1;" vertex="1" parent="1">
          <mxGeometry x="-80" y="110" width="80" height="40" as="geometry" />
        </mxCell>
        <mxCell id="Xm4_7lnJgAzcKnX5tmTT-38" value="Password" style="ellipse;whiteSpace=wrap;html=1;" vertex="1" parent="1">
          <mxGeometry x="210" y="-40" width="60" height="30" as="geometry" />
        </mxCell>
        <mxCell id="Xm4_7lnJgAzcKnX5tmTT-41" value="" style="endArrow=none;html=1;rounded=0;entryX=0;entryY=1;entryDx=0;entryDy=0;exitX=1;exitY=0.5;exitDx=0;exitDy=0;" edge="1" parent="1" source="Xm4_7lnJgAzcKnX5tmTT-37" target="Xm4_7lnJgAzcKnX5tmTT-1">
          <mxGeometry width="50" height="50" relative="1" as="geometry">
            <mxPoint x="160" y="230" as="sourcePoint" />
            <mxPoint x="210" y="180" as="targetPoint" />
          </mxGeometry>
        </mxCell>
        <mxCell id="Xm4_7lnJgAzcKnX5tmTT-42" value="" style="endArrow=none;html=1;rounded=0;entryX=0;entryY=0.25;entryDx=0;entryDy=0;exitX=1;exitY=0.5;exitDx=0;exitDy=0;" edge="1" parent="1" source="Xm4_7lnJgAzcKnX5tmTT-33" target="Xm4_7lnJgAzcKnX5tmTT-1">
          <mxGeometry width="50" height="50" relative="1" as="geometry">
            <mxPoint x="10" y="160" as="sourcePoint" />
            <mxPoint x="70" y="130" as="targetPoint" />
          </mxGeometry>
        </mxCell>
        <mxCell id="Xm4_7lnJgAzcKnX5tmTT-43" value="" style="endArrow=none;html=1;rounded=0;entryX=0;entryY=0.5;entryDx=0;entryDy=0;exitX=1;exitY=0.5;exitDx=0;exitDy=0;" edge="1" parent="1" source="Xm4_7lnJgAzcKnX5tmTT-32" target="Xm4_7lnJgAzcKnX5tmTT-1">
          <mxGeometry width="50" height="50" relative="1" as="geometry">
            <mxPoint x="-10" y="90" as="sourcePoint" />
            <mxPoint x="50" y="60" as="targetPoint" />
          </mxGeometry>
        </mxCell>
        <mxCell id="Xm4_7lnJgAzcKnX5tmTT-44" value="" style="endArrow=none;html=1;rounded=0;entryX=0;entryY=0;entryDx=0;entryDy=0;exitX=1;exitY=1;exitDx=0;exitDy=0;" edge="1" parent="1" source="Xm4_7lnJgAzcKnX5tmTT-36" target="Xm4_7lnJgAzcKnX5tmTT-1">
          <mxGeometry width="50" height="50" relative="1" as="geometry">
            <mxPoint x="50" y="20" as="sourcePoint" />
            <mxPoint x="110" y="-10" as="targetPoint" />
          </mxGeometry>
        </mxCell>
        <mxCell id="Xm4_7lnJgAzcKnX5tmTT-45" value="" style="endArrow=none;html=1;rounded=0;entryX=0.25;entryY=0;entryDx=0;entryDy=0;exitX=0.5;exitY=1;exitDx=0;exitDy=0;" edge="1" parent="1" source="Xm4_7lnJgAzcKnX5tmTT-34" target="Xm4_7lnJgAzcKnX5tmTT-1">
          <mxGeometry width="50" height="50" relative="1" as="geometry">
            <mxPoint x="120" as="sourcePoint" />
            <mxPoint x="180" y="-30" as="targetPoint" />
          </mxGeometry>
        </mxCell>
        <mxCell id="Xm4_7lnJgAzcKnX5tmTT-46" value="" style="endArrow=none;html=1;rounded=0;entryX=0.75;entryY=0;entryDx=0;entryDy=0;exitX=0.5;exitY=1;exitDx=0;exitDy=0;" edge="1" parent="1" source="Xm4_7lnJgAzcKnX5tmTT-35" target="Xm4_7lnJgAzcKnX5tmTT-1">
          <mxGeometry width="50" height="50" relative="1" as="geometry">
            <mxPoint x="170" y="10" as="sourcePoint" />
            <mxPoint x="230" y="-20" as="targetPoint" />
          </mxGeometry>
        </mxCell>
        <mxCell id="Xm4_7lnJgAzcKnX5tmTT-47" value="" style="endArrow=none;html=1;rounded=0;entryX=0.5;entryY=1;entryDx=0;entryDy=0;exitX=1;exitY=0;exitDx=0;exitDy=0;" edge="1" parent="1" source="Xm4_7lnJgAzcKnX5tmTT-1" target="Xm4_7lnJgAzcKnX5tmTT-38">
          <mxGeometry width="50" height="50" relative="1" as="geometry">
            <mxPoint x="200" y="20" as="sourcePoint" />
            <mxPoint x="260" y="-10" as="targetPoint" />
          </mxGeometry>
        </mxCell>
        <mxCell id="Xm4_7lnJgAzcKnX5tmTT-52" value="Creation date" style="ellipse;whiteSpace=wrap;html=1;" vertex="1" parent="1">
          <mxGeometry x="100" y="370" width="60" height="30" as="geometry" />
        </mxCell>
        <mxCell id="Xm4_7lnJgAzcKnX5tmTT-53" value="Owner ID" style="ellipse;whiteSpace=wrap;html=1;" vertex="1" parent="1">
          <mxGeometry x="170" y="370" width="60" height="30" as="geometry" />
        </mxCell>
        <mxCell id="Xm4_7lnJgAzcKnX5tmTT-54" value="Channel name" style="ellipse;whiteSpace=wrap;html=1;" vertex="1" parent="1">
          <mxGeometry x="250" y="347.5" width="60" height="30" as="geometry" />
        </mxCell>
        <mxCell id="Xm4_7lnJgAzcKnX5tmTT-56" value="Channel ID" style="ellipse;whiteSpace=wrap;html=1;" vertex="1" parent="1">
          <mxGeometry x="170" y="240" width="60" height="30" as="geometry" />
        </mxCell>
        <mxCell id="Xm4_7lnJgAzcKnX5tmTT-57" value="" style="endArrow=none;html=1;rounded=0;entryX=0.75;entryY=0;entryDx=0;entryDy=0;exitX=0.5;exitY=1;exitDx=0;exitDy=0;" edge="1" parent="1" source="Xm4_7lnJgAzcKnX5tmTT-56" target="Xm4_7lnJgAzcKnX5tmTT-8">
          <mxGeometry width="50" height="50" relative="1" as="geometry">
            <mxPoint x="360" y="240" as="sourcePoint" />
            <mxPoint x="420" y="210" as="targetPoint" />
          </mxGeometry>
        </mxCell>
        <mxCell id="Xm4_7lnJgAzcKnX5tmTT-58" value="" style="endArrow=none;html=1;rounded=0;entryX=1;entryY=1;entryDx=0;entryDy=0;exitX=0;exitY=0.5;exitDx=0;exitDy=0;" edge="1" parent="1" source="Xm4_7lnJgAzcKnX5tmTT-54" target="Xm4_7lnJgAzcKnX5tmTT-8">
          <mxGeometry width="50" height="50" relative="1" as="geometry">
            <mxPoint x="300" y="270" as="sourcePoint" />
            <mxPoint x="360" y="240" as="targetPoint" />
          </mxGeometry>
        </mxCell>
        <mxCell id="Xm4_7lnJgAzcKnX5tmTT-59" value="" style="endArrow=none;html=1;rounded=0;entryX=0.5;entryY=0;entryDx=0;entryDy=0;exitX=0.75;exitY=1;exitDx=0;exitDy=0;" edge="1" parent="1" source="Xm4_7lnJgAzcKnX5tmTT-8" target="Xm4_7lnJgAzcKnX5tmTT-53">
          <mxGeometry width="50" height="50" relative="1" as="geometry">
            <mxPoint x="250" y="410" as="sourcePoint" />
            <mxPoint x="310" y="380" as="targetPoint" />
          </mxGeometry>
        </mxCell>
        <mxCell id="Xm4_7lnJgAzcKnX5tmTT-60" value="" style="endArrow=none;html=1;rounded=0;entryX=0.25;entryY=1;entryDx=0;entryDy=0;exitX=0.5;exitY=0;exitDx=0;exitDy=0;" edge="1" parent="1" source="Xm4_7lnJgAzcKnX5tmTT-52" target="Xm4_7lnJgAzcKnX5tmTT-8">
          <mxGeometry width="50" height="50" relative="1" as="geometry">
            <mxPoint x="360" y="230" as="sourcePoint" />
            <mxPoint x="420" y="200" as="targetPoint" />
          </mxGeometry>
        </mxCell>
        <mxCell id="Xm4_7lnJgAzcKnX5tmTT-61" value="Message ID" style="ellipse;whiteSpace=wrap;html=1;" vertex="1" parent="1">
          <mxGeometry x="190" y="520" width="70" height="30" as="geometry" />
        </mxCell>
        <mxCell id="Xm4_7lnJgAzcKnX5tmTT-62" value="User ID" style="ellipse;whiteSpace=wrap;html=1;" vertex="1" parent="1">
          <mxGeometry x="270" y="520" width="60" height="30" as="geometry" />
        </mxCell>
        <mxCell id="Xm4_7lnJgAzcKnX5tmTT-63" value="Stream ID" style="ellipse;whiteSpace=wrap;html=1;" vertex="1" parent="1">
          <mxGeometry x="340" y="520" width="60" height="30" as="geometry" />
        </mxCell>
        <mxCell id="Xm4_7lnJgAzcKnX5tmTT-64" value="Content" style="ellipse;whiteSpace=wrap;html=1;" vertex="1" parent="1">
          <mxGeometry x="410" y="520" width="60" height="30" as="geometry" />
        </mxCell>
        <mxCell id="Xm4_7lnJgAzcKnX5tmTT-65" value="Timestamp" style="ellipse;whiteSpace=wrap;html=1;" vertex="1" parent="1">
          <mxGeometry x="480" y="520" width="60" height="30" as="geometry" />
        </mxCell>
        <mxCell id="Xm4_7lnJgAzcKnX5tmTT-66" value="" style="endArrow=none;html=1;rounded=0;entryX=0.5;entryY=0;entryDx=0;entryDy=0;exitX=0;exitY=1;exitDx=0;exitDy=0;" edge="1" parent="1" source="Xm4_7lnJgAzcKnX5tmTT-16" target="Xm4_7lnJgAzcKnX5tmTT-61">
          <mxGeometry width="50" height="50" relative="1" as="geometry">
            <mxPoint x="240" y="500" as="sourcePoint" />
            <mxPoint x="240" y="522" as="targetPoint" />
          </mxGeometry>
        </mxCell>
        <mxCell id="Xm4_7lnJgAzcKnX5tmTT-67" value="" style="endArrow=none;html=1;rounded=0;entryX=0.25;entryY=1;entryDx=0;entryDy=0;exitX=0.5;exitY=0;exitDx=0;exitDy=0;" edge="1" parent="1" source="Xm4_7lnJgAzcKnX5tmTT-62" target="Xm4_7lnJgAzcKnX5tmTT-16">
          <mxGeometry width="50" height="50" relative="1" as="geometry">
            <mxPoint x="350" y="590" as="sourcePoint" />
            <mxPoint x="350" y="612" as="targetPoint" />
          </mxGeometry>
        </mxCell>
        <mxCell id="Xm4_7lnJgAzcKnX5tmTT-68" value="" style="endArrow=none;html=1;rounded=0;entryX=0.5;entryY=0;entryDx=0;entryDy=0;exitX=0.5;exitY=1;exitDx=0;exitDy=0;" edge="1" parent="1" source="Xm4_7lnJgAzcKnX5tmTT-16" target="Xm4_7lnJgAzcKnX5tmTT-63">
          <mxGeometry width="50" height="50" relative="1" as="geometry">
            <mxPoint x="390" y="600" as="sourcePoint" />
            <mxPoint x="390" y="622" as="targetPoint" />
          </mxGeometry>
        </mxCell>
        <mxCell id="Xm4_7lnJgAzcKnX5tmTT-69" value="" style="endArrow=none;html=1;rounded=0;entryX=0.5;entryY=0;entryDx=0;entryDy=0;exitX=0.75;exitY=1;exitDx=0;exitDy=0;" edge="1" parent="1" source="Xm4_7lnJgAzcKnX5tmTT-16" target="Xm4_7lnJgAzcKnX5tmTT-64">
          <mxGeometry width="50" height="50" relative="1" as="geometry">
            <mxPoint x="390" y="600" as="sourcePoint" />
            <mxPoint x="390" y="622" as="targetPoint" />
          </mxGeometry>
        </mxCell>
        <mxCell id="Xm4_7lnJgAzcKnX5tmTT-70" value="" style="endArrow=none;html=1;rounded=0;entryX=0.5;entryY=0;entryDx=0;entryDy=0;exitX=1;exitY=1;exitDx=0;exitDy=0;" edge="1" parent="1" source="Xm4_7lnJgAzcKnX5tmTT-16" target="Xm4_7lnJgAzcKnX5tmTT-65">
          <mxGeometry width="50" height="50" relative="1" as="geometry">
            <mxPoint x="430" y="620" as="sourcePoint" />
            <mxPoint x="430" y="642" as="targetPoint" />
          </mxGeometry>
        </mxCell>
        <mxCell id="Xm4_7lnJgAzcKnX5tmTT-71" value="Title" style="ellipse;whiteSpace=wrap;html=1;" vertex="1" parent="1">
          <mxGeometry x="690" y="270" width="60" height="30" as="geometry" />
        </mxCell>
        <mxCell id="Xm4_7lnJgAzcKnX5tmTT-72" value="Start date" style="ellipse;whiteSpace=wrap;html=1;" vertex="1" parent="1">
          <mxGeometry x="690" y="352.5" width="60" height="30" as="geometry" />
        </mxCell>
        <mxCell id="Xm4_7lnJgAzcKnX5tmTT-73" value="Stream ID" style="ellipse;whiteSpace=wrap;html=1;" vertex="1" parent="1">
          <mxGeometry x="690" y="231.25" width="60" height="30" as="geometry" />
        </mxCell>
        <mxCell id="Xm4_7lnJgAzcKnX5tmTT-74" value="End date" style="ellipse;whiteSpace=wrap;html=1;" vertex="1" parent="1">
          <mxGeometry x="690" y="400" width="60" height="30" as="geometry" />
        </mxCell>
        <mxCell id="Xm4_7lnJgAzcKnX5tmTT-75" value="Channel ID" style="ellipse;whiteSpace=wrap;html=1;" vertex="1" parent="1">
          <mxGeometry x="690" y="312.5" width="70" height="30" as="geometry" />
        </mxCell>
        <mxCell id="Xm4_7lnJgAzcKnX5tmTT-76" style="edgeStyle=orthogonalEdgeStyle;rounded=0;orthogonalLoop=1;jettySize=auto;html=1;exitX=0.5;exitY=1;exitDx=0;exitDy=0;" edge="1" parent="1" source="Xm4_7lnJgAzcKnX5tmTT-74" target="Xm4_7lnJgAzcKnX5tmTT-74">
          <mxGeometry relative="1" as="geometry" />
        </mxCell>
        <mxCell id="Xm4_7lnJgAzcKnX5tmTT-77" value="" style="endArrow=none;html=1;rounded=0;entryX=0;entryY=0.5;entryDx=0;entryDy=0;exitX=1;exitY=1;exitDx=0;exitDy=0;" edge="1" parent="1" source="Xm4_7lnJgAzcKnX5tmTT-12" target="Xm4_7lnJgAzcKnX5tmTT-74">
          <mxGeometry width="50" height="50" relative="1" as="geometry">
            <mxPoint x="750" y="500" as="sourcePoint" />
            <mxPoint x="850" y="537" as="targetPoint" />
          </mxGeometry>
        </mxCell>
        <mxCell id="Xm4_7lnJgAzcKnX5tmTT-78" value="" style="endArrow=none;html=1;rounded=0;entryX=0;entryY=0.5;entryDx=0;entryDy=0;exitX=1;exitY=0.75;exitDx=0;exitDy=0;" edge="1" parent="1" source="Xm4_7lnJgAzcKnX5tmTT-12" target="Xm4_7lnJgAzcKnX5tmTT-72">
          <mxGeometry width="50" height="50" relative="1" as="geometry">
            <mxPoint x="760" y="480" as="sourcePoint" />
            <mxPoint x="860" y="517" as="targetPoint" />
          </mxGeometry>
        </mxCell>
        <mxCell id="Xm4_7lnJgAzcKnX5tmTT-79" value="" style="endArrow=none;html=1;rounded=0;entryX=0;entryY=0.5;entryDx=0;entryDy=0;exitX=1;exitY=0.5;exitDx=0;exitDy=0;" edge="1" parent="1" source="Xm4_7lnJgAzcKnX5tmTT-12" target="Xm4_7lnJgAzcKnX5tmTT-75">
          <mxGeometry width="50" height="50" relative="1" as="geometry">
            <mxPoint x="530" y="261.25" as="sourcePoint" />
            <mxPoint x="790" y="455.75" as="targetPoint" />
          </mxGeometry>
        </mxCell>
        <mxCell id="Xm4_7lnJgAzcKnX5tmTT-80" value="" style="endArrow=none;html=1;rounded=0;entryX=0;entryY=0.5;entryDx=0;entryDy=0;exitX=1;exitY=0.25;exitDx=0;exitDy=0;" edge="1" parent="1" source="Xm4_7lnJgAzcKnX5tmTT-12" target="Xm4_7lnJgAzcKnX5tmTT-71">
          <mxGeometry width="50" height="50" relative="1" as="geometry">
            <mxPoint x="710" y="490" as="sourcePoint" />
            <mxPoint x="810" y="527" as="targetPoint" />
          </mxGeometry>
        </mxCell>
        <mxCell id="Xm4_7lnJgAzcKnX5tmTT-81" value="" style="endArrow=none;html=1;rounded=0;entryX=0;entryY=0.5;entryDx=0;entryDy=0;exitX=1;exitY=0;exitDx=0;exitDy=0;" edge="1" parent="1" source="Xm4_7lnJgAzcKnX5tmTT-12" target="Xm4_7lnJgAzcKnX5tmTT-73">
          <mxGeometry width="50" height="50" relative="1" as="geometry">
            <mxPoint x="660" y="430" as="sourcePoint" />
            <mxPoint x="760" y="467" as="targetPoint" />
          </mxGeometry>
        </mxCell>
        <mxCell id="Xm4_7lnJgAzcKnX5tmTT-82" value="Subscription&amp;nbsp; ID" style="ellipse;whiteSpace=wrap;html=1;" vertex="1" parent="1">
          <mxGeometry x="460" y="200" width="100" height="30" as="geometry" />
        </mxCell>
        <mxCell id="Xm4_7lnJgAzcKnX5tmTT-83" value="Start date" style="ellipse;whiteSpace=wrap;html=1;" vertex="1" parent="1">
          <mxGeometry x="380" y="201.25" width="60" height="30" as="geometry" />
        </mxCell>
        <mxCell id="Xm4_7lnJgAzcKnX5tmTT-84" value="Level" style="ellipse;whiteSpace=wrap;html=1;" vertex="1" parent="1">
          <mxGeometry x="560" y="160" width="60" height="30" as="geometry" />
        </mxCell>
        <mxCell id="Xm4_7lnJgAzcKnX5tmTT-85" value="Channel ID" style="ellipse;whiteSpace=wrap;html=1;" vertex="1" parent="1">
          <mxGeometry x="560" y="120" width="60" height="30" as="geometry" />
        </mxCell>
        <mxCell id="Xm4_7lnJgAzcKnX5tmTT-86" value="User ID" style="ellipse;whiteSpace=wrap;html=1;" vertex="1" parent="1">
          <mxGeometry x="500" y="80" width="60" height="30" as="geometry" />
        </mxCell>
        <mxCell id="Xm4_7lnJgAzcKnX5tmTT-88" value="" style="endArrow=none;html=1;rounded=0;entryX=0;entryY=1;entryDx=0;entryDy=0;exitX=0.5;exitY=0;exitDx=0;exitDy=0;" edge="1" parent="1" source="Xm4_7lnJgAzcKnX5tmTT-83" target="Xm4_7lnJgAzcKnX5tmTT-6">
          <mxGeometry width="50" height="50" relative="1" as="geometry">
            <mxPoint x="470" y="260" as="sourcePoint" />
            <mxPoint x="500" y="213" as="targetPoint" />
          </mxGeometry>
        </mxCell>
        <mxCell id="Xm4_7lnJgAzcKnX5tmTT-89" value="" style="endArrow=none;html=1;rounded=0;entryX=0.75;entryY=1;entryDx=0;entryDy=0;exitX=0.5;exitY=0;exitDx=0;exitDy=0;" edge="1" parent="1" source="Xm4_7lnJgAzcKnX5tmTT-82" target="Xm4_7lnJgAzcKnX5tmTT-6">
          <mxGeometry width="50" height="50" relative="1" as="geometry">
            <mxPoint x="490" y="270" as="sourcePoint" />
            <mxPoint x="520" y="223" as="targetPoint" />
          </mxGeometry>
        </mxCell>
        <mxCell id="Xm4_7lnJgAzcKnX5tmTT-90" value="" style="endArrow=none;html=1;rounded=0;entryX=1;entryY=1;entryDx=0;entryDy=0;exitX=0;exitY=0.5;exitDx=0;exitDy=0;" edge="1" parent="1" source="Xm4_7lnJgAzcKnX5tmTT-84" target="Xm4_7lnJgAzcKnX5tmTT-6">
          <mxGeometry width="50" height="50" relative="1" as="geometry">
            <mxPoint x="500" y="270" as="sourcePoint" />
            <mxPoint x="530" y="223" as="targetPoint" />
          </mxGeometry>
        </mxCell>
        <mxCell id="Xm4_7lnJgAzcKnX5tmTT-91" value="" style="endArrow=none;html=1;rounded=0;entryX=0;entryY=0.5;entryDx=0;entryDy=0;exitX=1;exitY=0.25;exitDx=0;exitDy=0;" edge="1" parent="1" source="Xm4_7lnJgAzcKnX5tmTT-6" target="Xm4_7lnJgAzcKnX5tmTT-85">
          <mxGeometry width="50" height="50" relative="1" as="geometry">
            <mxPoint x="480" y="280" as="sourcePoint" />
            <mxPoint x="510" y="233" as="targetPoint" />
          </mxGeometry>
        </mxCell>
        <mxCell id="Xm4_7lnJgAzcKnX5tmTT-92" value="" style="endArrow=none;html=1;rounded=0;entryX=0.5;entryY=1;entryDx=0;entryDy=0;exitX=0.75;exitY=0;exitDx=0;exitDy=0;" edge="1" parent="1" source="Xm4_7lnJgAzcKnX5tmTT-6" target="Xm4_7lnJgAzcKnX5tmTT-86">
          <mxGeometry width="50" height="50" relative="1" as="geometry">
            <mxPoint x="500" y="270" as="sourcePoint" />
            <mxPoint x="530" y="223" as="targetPoint" />
          </mxGeometry>
        </mxCell>
        <mxCell id="Xm4_7lnJgAzcKnX5tmTT-93" value="Length&amp;nbsp;" style="ellipse;whiteSpace=wrap;html=1;" vertex="1" parent="1">
          <mxGeometry x="820" y="175" width="60" height="30" as="geometry" />
        </mxCell>
        <mxCell id="Xm4_7lnJgAzcKnX5tmTT-94" value="Creator ID" style="ellipse;whiteSpace=wrap;html=1;" vertex="1" parent="1">
          <mxGeometry x="880" y="135" width="60" height="30" as="geometry" />
        </mxCell>
        <mxCell id="Xm4_7lnJgAzcKnX5tmTT-95" value="Stream ID" style="ellipse;whiteSpace=wrap;html=1;" vertex="1" parent="1">
          <mxGeometry x="880" y="90" width="60" height="30" as="geometry" />
        </mxCell>
        <mxCell id="Xm4_7lnJgAzcKnX5tmTT-96" value="Title" style="ellipse;whiteSpace=wrap;html=1;" vertex="1" parent="1">
          <mxGeometry x="860" y="50" width="60" height="30" as="geometry" />
        </mxCell>
        <mxCell id="Xm4_7lnJgAzcKnX5tmTT-97" value="Clip ID" style="ellipse;whiteSpace=wrap;html=1;" vertex="1" parent="1">
          <mxGeometry x="790" y="40" width="60" height="30" as="geometry" />
        </mxCell>
        <mxCell id="Xm4_7lnJgAzcKnX5tmTT-98" value="Creation date" style="ellipse;whiteSpace=wrap;html=1;" vertex="1" parent="1">
          <mxGeometry x="730" y="175" width="80" height="30" as="geometry" />
        </mxCell>
        <mxCell id="Xm4_7lnJgAzcKnX5tmTT-100" value="Price" style="ellipse;whiteSpace=wrap;html=1;" vertex="1" parent="1">
          <mxGeometry x="400" y="80" width="60" height="30" as="geometry" />
        </mxCell>
        <mxCell id="Xm4_7lnJgAzcKnX5tmTT-101" value="" style="endArrow=none;html=1;rounded=0;entryX=0;entryY=0;entryDx=0;entryDy=0;exitX=0.5;exitY=1;exitDx=0;exitDy=0;" edge="1" parent="1" source="Xm4_7lnJgAzcKnX5tmTT-100" target="Xm4_7lnJgAzcKnX5tmTT-6">
          <mxGeometry width="50" height="50" relative="1" as="geometry">
            <mxPoint x="480" y="80" as="sourcePoint" />
            <mxPoint x="500" y="70" as="targetPoint" />
          </mxGeometry>
        </mxCell>
        <mxCell id="Xm4_7lnJgAzcKnX5tmTT-102" value="1" style="text;html=1;align=center;verticalAlign=middle;whiteSpace=wrap;rounded=0;" vertex="1" parent="1">
          <mxGeometry x="110" y="100" width="60" height="30" as="geometry" />
        </mxCell>
        <mxCell id="Xm4_7lnJgAzcKnX5tmTT-104" value="1" style="text;html=1;align=center;verticalAlign=middle;whiteSpace=wrap;rounded=0;" vertex="1" parent="1">
          <mxGeometry x="120" y="257.5" width="60" height="30" as="geometry" />
        </mxCell>
        <mxCell id="Xm4_7lnJgAzcKnX5tmTT-105" value="1" style="text;html=1;align=center;verticalAlign=middle;whiteSpace=wrap;rounded=0;" vertex="1" parent="1">
          <mxGeometry x="210" y="287.5" width="60" height="30" as="geometry" />
        </mxCell>
        <mxCell id="Xm4_7lnJgAzcKnX5tmTT-106" value="M" style="text;html=1;align=center;verticalAlign=middle;whiteSpace=wrap;rounded=0;" vertex="1" parent="1">
          <mxGeometry x="490" y="287.5" width="60" height="30" as="geometry" />
        </mxCell>
        <mxCell id="Xm4_7lnJgAzcKnX5tmTT-107" value="1" style="text;html=1;align=center;verticalAlign=middle;whiteSpace=wrap;rounded=0;" vertex="1" parent="1">
          <mxGeometry x="50" y="100" width="60" height="30" as="geometry" />
        </mxCell>
        <mxCell id="Xm4_7lnJgAzcKnX5tmTT-110" style="edgeStyle=orthogonalEdgeStyle;rounded=0;orthogonalLoop=1;jettySize=auto;html=1;exitX=1;exitY=0.5;exitDx=0;exitDy=0;entryX=0.25;entryY=0;entryDx=0;entryDy=0;" edge="1" parent="1" source="Xm4_7lnJgAzcKnX5tmTT-108" target="Xm4_7lnJgAzcKnX5tmTT-12">
          <mxGeometry relative="1" as="geometry" />
        </mxCell>
        <mxCell id="Xm4_7lnJgAzcKnX5tmTT-108" value="Has lIked" style="rhombus;whiteSpace=wrap;html=1;fillColor=#dae8fc;strokeColor=#6c8ebf;" vertex="1" parent="1">
          <mxGeometry x="260" y="221.25" width="100" height="50" as="geometry" />
        </mxCell>
        <mxCell id="Xm4_7lnJgAzcKnX5tmTT-111" value="M" style="text;html=1;align=center;verticalAlign=middle;whiteSpace=wrap;rounded=0;" vertex="1" parent="1">
          <mxGeometry x="160" y="105" width="60" height="30" as="geometry" />
        </mxCell>
        <mxCell id="Xm4_7lnJgAzcKnX5tmTT-112" value="M" style="text;html=1;align=center;verticalAlign=middle;whiteSpace=wrap;rounded=0;" vertex="1" parent="1">
          <mxGeometry x="520" y="252.5" width="60" height="30" as="geometry" />
        </mxCell>
        <mxCell id="Xm4_7lnJgAzcKnX5tmTT-113" value="M" style="text;html=1;align=center;verticalAlign=middle;whiteSpace=wrap;rounded=0;" vertex="1" parent="1">
          <mxGeometry x="230" y="452.5" width="60" height="30" as="geometry" />
        </mxCell>
        <mxCell id="Xm4_7lnJgAzcKnX5tmTT-114" value="M" style="text;html=1;align=center;verticalAlign=middle;whiteSpace=wrap;rounded=0;" vertex="1" parent="1">
          <mxGeometry x="410" y="452.5" width="60" height="30" as="geometry" />
        </mxCell>
        <mxCell id="Xm4_7lnJgAzcKnX5tmTT-115" value="M" style="text;html=1;align=center;verticalAlign=middle;whiteSpace=wrap;rounded=0;" vertex="1" parent="1">
          <mxGeometry x="640" y="90" width="60" height="30" as="geometry" />
        </mxCell>
        <mxCell id="Xm4_7lnJgAzcKnX5tmTT-116" value="M" style="text;html=1;align=center;verticalAlign=middle;whiteSpace=wrap;rounded=0;" vertex="1" parent="1">
          <mxGeometry x="700" y="55" width="60" height="30" as="geometry" />
        </mxCell>
        <mxCell id="Xm4_7lnJgAzcKnX5tmTT-117" value="1" style="text;html=1;align=center;verticalAlign=middle;whiteSpace=wrap;rounded=0;" vertex="1" parent="1">
          <mxGeometry x="200" y="10" width="60" height="30" as="geometry" />
        </mxCell>
        <mxCell id="Xm4_7lnJgAzcKnX5tmTT-118" value="1" style="text;html=1;align=center;verticalAlign=middle;whiteSpace=wrap;rounded=0;" vertex="1" parent="1">
          <mxGeometry x="600" y="352.5" width="60" height="30" as="geometry" />
        </mxCell>
        <mxCell id="Xm4_7lnJgAzcKnX5tmTT-119" value="1" style="text;html=1;align=center;verticalAlign=middle;whiteSpace=wrap;rounded=0;" vertex="1" parent="1">
          <mxGeometry x="600" y="262.5" width="60" height="30" as="geometry" />
        </mxCell>
        <mxCell id="Xm4_7lnJgAzcKnX5tmTT-120" value="1" style="text;html=1;align=center;verticalAlign=middle;whiteSpace=wrap;rounded=0;" vertex="1" parent="1">
          <mxGeometry x="180" y="60" width="60" height="30" as="geometry" />
        </mxCell>
        <mxCell id="Xm4_7lnJgAzcKnX5tmTT-121" value="M" style="text;html=1;align=center;verticalAlign=middle;whiteSpace=wrap;rounded=0;" vertex="1" parent="1">
          <mxGeometry x="360" y="115" width="60" height="30" as="geometry" />
        </mxCell>
        <mxCell id="Xm4_7lnJgAzcKnX5tmTT-122" value="" style="endArrow=none;html=1;rounded=0;exitX=0.5;exitY=0;exitDx=0;exitDy=0;" edge="1" parent="1" source="Xm4_7lnJgAzcKnX5tmTT-98" target="Xm4_7lnJgAzcKnX5tmTT-26">
          <mxGeometry width="50" height="50" relative="1" as="geometry">
            <mxPoint x="860" y="240" as="sourcePoint" />
            <mxPoint x="890" y="193" as="targetPoint" />
          </mxGeometry>
        </mxCell>
        <mxCell id="Xm4_7lnJgAzcKnX5tmTT-123" value="" style="endArrow=none;html=1;rounded=0;entryX=0.75;entryY=1;entryDx=0;entryDy=0;exitX=0.5;exitY=0;exitDx=0;exitDy=0;" edge="1" parent="1" source="Xm4_7lnJgAzcKnX5tmTT-93" target="Xm4_7lnJgAzcKnX5tmTT-26">
          <mxGeometry width="50" height="50" relative="1" as="geometry">
            <mxPoint x="910" y="210" as="sourcePoint" />
            <mxPoint x="940" y="163" as="targetPoint" />
          </mxGeometry>
        </mxCell>
        <mxCell id="Xm4_7lnJgAzcKnX5tmTT-124" value="" style="endArrow=none;html=1;rounded=0;entryX=0;entryY=0.5;entryDx=0;entryDy=0;exitX=1;exitY=0.75;exitDx=0;exitDy=0;" edge="1" parent="1" source="Xm4_7lnJgAzcKnX5tmTT-26" target="Xm4_7lnJgAzcKnX5tmTT-94">
          <mxGeometry width="50" height="50" relative="1" as="geometry">
            <mxPoint x="920" y="230" as="sourcePoint" />
            <mxPoint x="950" y="183" as="targetPoint" />
          </mxGeometry>
        </mxCell>
        <mxCell id="Xm4_7lnJgAzcKnX5tmTT-125" value="" style="endArrow=none;html=1;rounded=0;entryX=0;entryY=0.5;entryDx=0;entryDy=0;exitX=1;exitY=0.5;exitDx=0;exitDy=0;" edge="1" parent="1" source="Xm4_7lnJgAzcKnX5tmTT-26" target="Xm4_7lnJgAzcKnX5tmTT-95">
          <mxGeometry width="50" height="50" relative="1" as="geometry">
            <mxPoint x="930" y="230" as="sourcePoint" />
            <mxPoint x="960" y="183" as="targetPoint" />
          </mxGeometry>
        </mxCell>
        <mxCell id="Xm4_7lnJgAzcKnX5tmTT-126" value="" style="endArrow=none;html=1;rounded=0;entryX=0;entryY=1;entryDx=0;entryDy=0;exitX=1;exitY=0;exitDx=0;exitDy=0;" edge="1" parent="1" source="Xm4_7lnJgAzcKnX5tmTT-26" target="Xm4_7lnJgAzcKnX5tmTT-96">
          <mxGeometry width="50" height="50" relative="1" as="geometry">
            <mxPoint x="920" y="240" as="sourcePoint" />
            <mxPoint x="950" y="193" as="targetPoint" />
          </mxGeometry>
        </mxCell>
        <mxCell id="Xm4_7lnJgAzcKnX5tmTT-127" value="" style="endArrow=none;html=1;rounded=0;entryX=0.5;entryY=1;entryDx=0;entryDy=0;exitX=0.75;exitY=0;exitDx=0;exitDy=0;" edge="1" parent="1" source="Xm4_7lnJgAzcKnX5tmTT-26" target="Xm4_7lnJgAzcKnX5tmTT-97">
          <mxGeometry width="50" height="50" relative="1" as="geometry">
            <mxPoint x="890" y="240" as="sourcePoint" />
            <mxPoint x="920" y="193" as="targetPoint" />
          </mxGeometry>
        </mxCell>
        <mxCell id="Xm4_7lnJgAzcKnX5tmTT-128" value="Subscriptions" style="rounded=0;whiteSpace=wrap;html=1;fillColor=#f8cecc;strokeColor=#b85450;" vertex="1" parent="1">
          <mxGeometry x="430" y="130" width="100" height="40" as="geometry" />
        </mxCell>
        <mxCell id="Xm4_7lnJgAzcKnX5tmTT-129" value="ChatMessages" style="rounded=0;whiteSpace=wrap;html=1;fillColor=#f8cecc;strokeColor=#b85450;" vertex="1" parent="1">
          <mxGeometry x="305" y="432.5" width="90" height="40" as="geometry" />
        </mxCell>
      </root>
    </mxGraphModel>
  </diagram>
</mxfile>
